# xmcd
# 
# Track frame offsets:
#     150
#     8810
#     22682
#     36567
#     49075
#     60662
#     69910
#     81202
#     92580
#     103437
#     113377
#     124805
# 
# Disc length: 1830
# 
# Revision: 0
# Processed by: cddbd v1.5.2PL0 Copyright (c) Steve Scherf et al.
# Submitted via: fre:ac v1.0.31
# 
DISCID=9207240c
DTITLE=Bo Diddley - Bo Diddley Is A Gunslinger
DYEAR=1960
DGENRE=Rock/Pop
TTITLE0=Gun Slinger
TTITLE1=Ride On Josephine
TTITLE2=Doing The Crawdaddy
TTITLE3=Cadillac
TTITLE4=Somewhere
TTITLE5=Cheyenne
TTITLE6=Sixteen Tons
TTITLE7=Whoa Mule (Shine)
TTITLE8=No More Lovin'
TTITLE9=Diddling
TTITLE10=Working Man
TTITLE11=Do What I Say
EXTD=
EXTT0=
EXTT1=
EXTT2=
EXTT3=
EXTT4=
EXTT5=
EXTT6=
EXTT7=
EXTT8=
EXTT9=
EXTT10=
EXTT11=
PLAYORDER=
